<svg width="12" height="11" viewBox="0 0 12 11" fill="none" xmlns="http://www.w3.org/2000/svg">
<path d="M10.9085 8.52951L8.49572 6.33571C8.38166 6.23205 8.23179 6.17676 8.07773 6.18153C7.92368 6.18629 7.77751 6.25073 7.67008 6.36124L6.24969 7.82198C5.9078 7.75669 5.22046 7.54242 4.51294 6.83668C3.80542 6.12856 3.59114 5.43944 3.52763 5.09993L4.98719 3.67895C5.09784 3.57159 5.16237 3.42539 5.16714 3.2713C5.1719 3.1172 5.11652 2.96729 5.01272 2.85331L2.81952 0.441086C2.71567 0.326741 2.57134 0.257383 2.41718 0.247741C2.26301 0.238098 2.11116 0.288933 1.99388 0.389447L0.705856 1.49406C0.603237 1.59705 0.541986 1.73412 0.533724 1.87928C0.524821 2.02767 0.355063 5.54272 3.08068 8.26953C5.45848 10.6467 8.43695 10.8206 9.25725 10.8206C9.37715 10.8206 9.45075 10.8171 9.47034 10.8159C9.61547 10.8078 9.75247 10.7462 9.85496 10.6432L10.959 9.35455C11.0599 9.23764 11.1111 9.08591 11.1017 8.93176C11.0923 8.77761 11.0229 8.63325 10.9085 8.52951Z" fill="#FFA801"/>
</svg>
