<svg width="26" height="26" viewBox="0 0 26 26" fill="none" xmlns="http://www.w3.org/2000/svg">
<g clip-path="url(#clip0_45_1832)">
<path d="M13.1658 0.516235C6.53827 0.516235 1.16577 5.88874 1.16577 12.5162C1.16577 19.1437 6.53827 24.5162 13.1658 24.5162C19.7933 24.5162 25.1658 19.1437 25.1658 12.5162C25.1658 5.88874 19.7933 0.516235 13.1658 0.516235ZM17.7808 14.055C17.7808 14.055 18.842 15.1025 19.1033 15.5887C19.1108 15.5987 19.1145 15.6087 19.117 15.6137C19.2233 15.7925 19.2483 15.9312 19.1958 16.035C19.1083 16.2075 18.8083 16.2925 18.7058 16.3H16.8308C16.7008 16.3 16.4283 16.2662 16.0983 16.0387C15.8445 15.8612 15.5945 15.57 15.3508 15.2862C14.987 14.8637 14.672 14.4987 14.3545 14.4987C14.3142 14.4987 14.2741 14.505 14.2358 14.5175C13.9958 14.595 13.6883 14.9375 13.6883 15.85C13.6883 16.135 13.4633 16.2987 13.3045 16.2987H12.4458C12.1533 16.2987 10.6295 16.1962 9.27952 14.7725C7.62702 13.0287 6.13952 9.53123 6.12702 9.49873C6.03327 9.27248 6.22702 9.15123 6.43827 9.15123H8.33202C8.58452 9.15123 8.66702 9.30498 8.72452 9.44123C8.79202 9.59998 9.03952 10.2312 9.44577 10.9412C10.1045 12.0987 10.5083 12.5687 10.832 12.5687C10.8927 12.568 10.9524 12.5526 11.0058 12.5237C11.4283 12.2887 11.3495 10.7825 11.3308 10.47C11.3308 10.4112 11.3295 9.79623 11.1133 9.50123C10.9583 9.28748 10.6945 9.20623 10.5345 9.17623C10.5993 9.08687 10.6846 9.01442 10.7833 8.96498C11.0733 8.81998 11.5958 8.79873 12.1145 8.79873H12.4033C12.9658 8.80623 13.1108 8.84248 13.3145 8.89373C13.727 8.99249 13.7358 9.25873 13.6995 10.17C13.6883 10.4287 13.677 10.7212 13.677 11.0662C13.677 11.1412 13.6733 11.2212 13.6733 11.3062C13.6608 11.77 13.6458 12.2962 13.9733 12.5125C14.016 12.5393 14.0654 12.5536 14.1158 12.5537C14.2295 12.5537 14.572 12.5537 15.4995 10.9625C15.7856 10.4503 16.0341 9.91808 16.2433 9.36998C16.262 9.33748 16.317 9.23748 16.382 9.19873C16.43 9.17428 16.4832 9.16184 16.537 9.16248H18.7633C19.0058 9.16248 19.172 9.19873 19.2033 9.29248C19.2583 9.44123 19.1933 9.89498 18.177 11.2712L17.7233 11.87C16.802 13.0775 16.802 13.1387 17.7808 14.055Z" fill="#FFA801"/>
</g>
<defs>
<clipPath id="clip0_45_1832">
<rect width="25" height="25" fill="white" transform="translate(0.665039 0.0151367)"/>
</clipPath>
</defs>
</svg>
